<?xml version="1.0" encoding="UTF-8"?>
<!-- Generated by Pixelmator Pro 3.6.18 -->
<svg width="1024" height="1024" viewBox="0 0 1024 1024" xmlns="http://www.w3.org/2000/svg">
    <linearGradient id="linearGradient1" x1="727.414063" y1="781.789063" x2="275.414063" y2="329.789062" gradientUnits="userSpaceOnUse">
        <stop offset="0" stop-color="#00be16" stop-opacity="1"/>
        <stop offset="1" stop-color="#00d94a" stop-opacity="1"/>
    </linearGradient>
    <path id="-copy" fill="url(#linearGradient1)" fill-rule="evenodd" stroke="none" d="M 284.11496 731.012695 C 284.11496 754.13208 290.634613 771.774048 303.674286 783.939087 C 316.71405 796.104126 334.820557 802.186646 357.994476 802.186646 L 487.481171 802.186646 L 487.481171 558.085327 L 284.11496 558.085327 Z M 536.133484 802.186646 L 665.624756 802.186646 C 688.798645 802.186646 706.905151 796.104126 719.944946 783.939087 C 732.984558 771.774048 739.504333 754.13208 739.504333 731.012695 L 739.504333 558.085327 L 536.133484 558.085327 Z M 245.53627 483.987793 C 245.53627 499.008301 249.662811 509.876404 257.916077 516.592163 C 266.169373 523.307983 277.759216 526.665771 292.685944 526.665771 L 487.481171 526.665771 L 487.481171 374.820923 L 445.52948 374.820923 C 424.15332 374.820923 407.559296 369.194031 395.746857 357.939941 C 383.934418 346.685913 378.02832 333.473145 378.02832 318.301331 C 378.02832 303.45636 382.788147 291.8302 392.307983 283.422607 C 401.827911 275.014893 414.15387 270.811157 429.286377 270.811157 C 445.332855 270.811157 459.043457 276.661377 470.41861 288.361816 C 481.793671 300.062195 487.481171 315.760437 487.481171 335.456909 L 487.481171 374.820923 L 536.133484 374.820923 L 536.133484 335.456909 C 536.133484 315.760437 541.826233 300.062195 553.211914 288.361816 C 564.597656 276.661377 578.390747 270.811157 594.591614 270.811157 C 609.551575 270.811157 621.786011 275.014893 631.295227 283.422607 C 640.804626 291.8302 645.559143 303.45636 645.559143 318.301331 C 645.559143 333.473145 639.657593 346.685913 627.854187 357.939941 C 616.050781 369.194031 599.461304 374.820923 578.085144 374.820923 L 536.133484 374.820923 L 536.133484 526.665771 L 730.901489 526.665771 C 746.021973 526.665771 757.665466 523.307983 765.83252 516.592163 C 773.999451 509.876404 778.082947 499.008301 778.082947 483.987793 L 778.082947 419.995728 C 778.082947 404.115723 773.799011 392.61676 765.230957 385.498352 C 756.662964 378.380066 744.398254 374.820923 728.436462 374.820923 L 669.547058 374.820923 C 677.44928 367.191162 683.671692 358.259277 688.214417 348.025208 C 692.757202 337.791016 695.028625 326.572754 695.028625 314.369873 C 695.028625 296.462036 690.697754 280.529297 682.035828 266.571106 C 673.374023 252.612854 661.759277 241.694824 647.191162 233.816895 C 632.623108 225.938904 616.317383 222 598.273315 222 C 578.398315 222 560.756226 227.265259 545.346924 237.795959 C 529.937439 248.326721 518.802307 263.222229 511.941223 282.482788 C 505.08017 263.222229 493.900391 248.326721 478.401703 237.795959 C 462.903015 227.265259 445.217896 222 425.345886 222 C 407.474396 222 391.2117 225.938904 376.557434 233.816895 C 361.903107 241.694824 350.244446 252.612854 341.581085 266.571106 C 332.917725 280.529297 328.586029 296.462036 328.586029 314.369873 C 328.586029 326.572754 330.857452 337.791016 335.400208 348.025208 C 339.943054 358.259277 346.16687 367.191162 354.072144 374.820923 L 295.18277 374.820923 C 279.920135 374.820923 267.830139 378.380066 258.912537 385.498352 C 249.994965 392.61676 245.53627 404.115723 245.53627 419.995728 Z"/>
</svg>
